#!OML:ASF G:\JayActor3\Patient Classification 1\Patient 1\Session 6\male.ASF
:FULLY-SPECIFIED
:DEGREES
253
root 5.96101 16.455 -4.37834 208.951 -84.4518 -218.223
lowerback 2.37219 -0.10398 0.54357
upperback 10.0149 -0.366301 -3.74376
thorax 9.22031 -0.148063 -4.34358
lowerneck -4.97225 -0.417339 0.187339
upperneck 30.3885 -9.31666 20.6191
head 11.9076 -2.90363 6.61954
rclavicle -1.33186e-014 1.03368e-014
rhumerus 29.062 76.0396 21.4531
rradius 102.085
rwrist -44.9627
rhand 53.1385 -18.3223
rfingers 7.12502
rthumb 71.8567 -6.99116
lclavicle -1.33186e-014 1.03368e-014
lhumerus 20.5454 -65.5153 -8.16601
lradius 104.135
lwrist 64.017
lhand 37.2253 51.4985
lfingers 7.12502
lthumb 60.058 65.2178
rfemur -9.04695 4.77326 12.1217
rtibia 46.7568
rfoot -18.938 -13.7918
rtoes -7.64886
lfemur 1.80303 16.5031 -16.555
ltibia 33.3793
lfoot -9.52436 0.301665
ltoes -9.94544
254
root 5.97382 16.4728 -4.43874 204.942 -84.5568 -213.963
lowerback 2.29305 0.0328803 0.966115
upperback 10.2287 -0.203476 -3.73962
thorax 9.52578 -0.0298203 -4.58
lowerneck -5.06429 -0.421455 0.332823
upperneck 31.241 -9.38581 19.9899
head 12.2467 -2.93296 6.38702
rclavicle -2.18663e-015 -1.59028e-014
rhumerus 30.6399 76.8816 23.1518
rradius 101.552
rwrist -41.5177
rhand 53.0393 -18.343
rfingers 7.12502
rthumb 71.8015 -7.26306
lclavicle -2.18663e-015 -1.59028e-014
lhumerus 22.2753 -66.2516 -10.2572
lradius 102.601
lwrist 60.9606
lhand 36.9461 51.1859
lfingers 7.12502
lthumb 59.8191 65.1548
rfemur -8.59812 4.91422 13.0167
rtibia 45.533
rfoot -19.7426 -14.3976
rtoes -6.21601
lfemur 0.823765 16.76 -15.8571
ltibia 34.5219
lfoot -9.00885 0.208201
ltoes -10.1034
255
root 5.98941 16.4826 -4.49679 202.408 -84.6146 -211.203
lowerback 2.33868 0.216107 1.36864
upperback 10.3671 0.0294515 -3.86739
thorax 9.68568 0.126689 -4.93856
lowerneck -4.88935 -0.450256 0.72902
upperneck 32.0001 -9.50056 19.3535
head 12.4947 -2.98059 6.08996
rclavicle -8.34896e-015 7.95139e-016
rhumerus 31.0181 77.8958 23.5604
rradius 100.946
rwrist -38.0029
rhand 52.1541 -17.9355
rfingers 7.12502
rthumb 71.2936 -9.02849
lclavicle -8.34896e-015 7.95139e-016
lhumerus 24.4556 -66.8929 -12.8146
lradius 100.943
lwrist 58.1164
lhand 37.0288 51.1766
lfingers 7.12502
lthumb 59.8899 65.072
rfemur -8.16522 4.98034 13.6728
rtibia 44.3745
rfoot -20.5909 -14.615
rtoes -4.22172
lfemur -0.151477 16.9707 -15.3451
ltibia 35.6544
lfoot -8.51445 0.0764616
ltoes -10.8613
256
root 6.00624 16.4955 -4.55684 199.076 -84.6348 -207.592
lowerback 2.38041 0.544215 1.93551
upperback 10.6548 0.446269 -4.04801
thorax 10.0521 0.395206 -5.44482
lowerneck -5.32755 -0.623272 1.34066
upperneck 32.6936 -9.88522 18.7508
head 12.8918 -3.07769 5.72577
rclavicle 1.05356e-014 -1.03368e-014
rhumerus 27.7059 78.647 20.2622
rradius 100.246
rwrist -34.3508
rhand 51.5084 -17.9534
rfingers 7.12502
rthumb 70.9063 -10.5557
lclavicle 1.05356e-014 -1.03368e-014
lhumerus 27.5173 -66.8624 -16.1272
lradius 99.1215
lwrist 55.6594
lhand 36.9943 51.3164
lfingers 7.12502
lthumb 59.8604 65.2424
rfemur -7.85425 5.08766 14.4047
rtibia 43.275
rfoot -21.166 -14.9787
rtoes -3.15623
lfemur -1.15936 17.2611 -14.748
ltibia 36.748
lfoot -7.97185 -0.128156
ltoes -11.0032
257
root 6.02518 16.5067 -4.61598 194.633 -84.6424 -202.842
lowerback 2.45224 1.10223 2.78844
upperback 11.0637 1.16107 -4.31938
thorax 10.6159 0.850794 -6.20141
lowerneck -6.19203 -1.01399 2.43351
upperneck 33.2404 -10.6935 18.1762
head 13.3703 -3.27407 5.21165
rclavicle -5.96354e-016 -1.11319e-014
rhumerus 19.146 79.046 11.6342
rradius 99.3947
rwrist -30.5485
rhand 51.6722 -18.1695
rfingers 7.12502
rthumb 71.0058 -10.3949
lclavicle -5.96354e-016 -1.11319e-014
lhumerus 32.093 -66.0883 -20.7862
lradius 97.1493
lwrist 53.4889
lhand 36.7359 51.4317
lfingers 7.12502
lthumb 59.6388 65.5857
rfemur -7.61883 5.13928 15.2366
rtibia 42.2411
rfoot -21.4219 -15.5079
rtoes -2.85751
lfemur -2.17808 17.6072 -14.0241
ltibia 37.8244
lfoot -7.37798 -0.398517
ltoes -11.5396
258
root 6.04568 16.5213 -4.6748 191.803 -84.6292 -199.728
lowerback 2.75078 0.281978 2.0276
upperback 11.7327 -0.023937 -3.66883
thorax 11.016 0.15044 -5.15471
lowerneck -7.82656 -0.27856 1.0541
upperneck 34.7196 -9.13854 16.6905
head 14.1099 -2.72563 5.14514
rclavicle -8.34896e-015 -2.94201e-014
rhumerus 34.0291 76.9738 26.413
rradius 98.489
rwrist -27.593
rhand 50.9153 -18.4223
rfingers 7.12502
rthumb 70.539 -12.356
lclavicle -8.34896e-015 -2.94201e-014
lhumerus 23.8414 -66.1299 -13.0341
lradius 94.92
lwrist 51.044
lhand 36.7013 51.8103
lfingers 7.12502
lthumb 59.6091 65.9945
rfemur -7.40993 5.16455 15.8429
rtibia 41.2686
rfoot -21.6793 -15.757
rtoes -2.0144
lfemur -3.14712 17.852 -13.4759
ltibia 38.858
lfoot -6.73429 -0.66298
ltoes -10.7839
259
root 6.06805 16.5348 -4.73465 189.049 -84.6073 -196.67
lowerback 2.84456 0.333262 2.28697
upperback 11.8744 0.0232714 -3.67105
thorax 11.1367 0.19914 -5.30662
lowerneck -7.93479 -0.227364 0.951292
upperneck 35.52 -9.01953 16.0752
head 14.4503 -2.72106 4.97302
rclavicle -1.39149e-015 -1.74931e-014
rhumerus 34.7434 77.3842 27.1094
rradius 97.5732
rwrist -24.5024
rhand 49.5317 -18.7951
rfingers 7.12502
rthumb 69.6421 -15.6391
lclavicle -1.39149e-015 -1.74931e-014
lhumerus 23.7453 -66.3513 -13.1669
lradius 92.7418
lwrist 48.6227
lhand 36.6127 51.8774
lfingers 7.12502
lthumb 59.5329 66.1389
rfemur -7.26924 5.22769 16.427
rtibia 40.3598
rfoot -21.9089 -15.8588
rtoes -0.804746
lfemur -4.18988 18.2052 -12.9203
ltibia 39.9019
lfoot -5.98522 -0.907635
ltoes -11.267
260
root 6.09072 16.5498 -4.79594 187.398 -84.597 -194.737
lowerback 2.98444 0.384801 2.43649
upperback 12.0586 0.0730276 -3.72403
thorax 11.28 0.24053 -5.45348
lowerneck -8.09495 -0.147317 1.03521
upperneck 36.32 -8.83288 15.3144
head 14.787 -2.67696 4.7094
rclavicle -1.86858e-014 -2.70347e-014
rhumerus 34.857 77.5786 27.0648
rradius 96.4341
rwrist -21.2588
rhand 48.9702 -18.6448
rfingers 7.12502
rthumb 69.2635 -16.5951
lclavicle -1.86858e-014 -2.70347e-014
lhumerus 23.4679 -66.3655 -13.154
lradius 90.525
lwrist 45.9639
lhand 36.4948 51.9655
lfingers 7.12502
lthumb 59.4315 66.329
rfemur -7.14168 5.26013 16.8736
rtibia 39.5011
rfoot -22.0444 -15.9573
rtoes -0.0816746
lfemur -5.23295 18.5838 -12.4686
ltibia 40.9497
lfoot -5.18943 -1.19844
ltoes -11.2676
261
root 6.11491 16.5655 -4.85654 186.02 -84.6441 -193.093
lowerback 3.13995 0.425829 2.58099
upperback 12.224 0.111111 -3.78573
thorax 11.3916 0.276199 -5.60705
lowerneck -8.09041 -0.0702826 1.1495
upperneck 37.0233 -8.62058 14.5594
head 15.0423 -2.63212 4.43641
rclavicle -9.93923e-015 -2.06736e-014
rhumerus 34.2362 77.6879 26.2475
rradius 95.1419
rwrist -17.8748
rhand 49.1241 -18.1
rfingers 7.12502
rthumb 69.3681 -15.751
lclavicle -9.93923e-015 -2.06736e-014
lhumerus 23.2287 -66.3526 -13.1265
lradius 88.2374
lwrist 43.054
lhand 36.3563 51.9211
lfingers 7.12502
lthumb 59.3123 66.4036
rfemur -7.02722 5.15169 17.2517
rtibia 38.6997
rfoot -21.9707 -16.0102
rtoes 0.266502
lfemur -6.34357 19.0713 -12.034
ltibia 42.0724
lfoot -4.17419 -1.44877
ltoes -12.9697
262
root 6.14211 16.5807 -4.9189 184.966 -84.7759 -191.821
lowerback 3.31824 0.452011 2.64826
upperback 12.4422 0.125019 -3.81841
thorax 11.5468 0.290601 -5.68876
lowerneck -8.11452 -0.0140823 1.24827
upperneck 37.705 -8.39067 13.7342
head 15.2936 -2.5891 4.13391
rclavicle 3.97569e-016 3.18055e-014
rhumerus 33.6301 77.8592 25.5098
rradius 93.8063
rwrist -15.4328
rhand 48.1853 -18.5579
rfingers 7.12502
rthumb 68.7213 -17.986
lclavicle 3.97569e-016 3.18055e-014
lhumerus 22.7857 -66.1877 -12.8698
lradius 85.9267
lwrist 39.8609
lhand 36.2058 51.9212
lfingers 7.12502
lthumb 59.1826 66.5319
rfemur -6.8785 4.98843 17.5847
rtibia 37.9332
rfoot -21.9242 -15.915
rtoes 0.916428
lfemur -7.52517 19.5376 -11.5928
ltibia 43.3015
lfoot -2.97508 -1.76849
ltoes -13.2984
263
root 6.17103 16.598 -4.98445 184.674 -84.928 -191.292
lowerback 3.53221 0.494442 2.62346
upperback 12.6397 0.166267 -3.87013
thorax 11.6583 0.308892 -5.73613
lowerneck -8.03595 -0.00729818 1.42226
upperneck 38.2013 -8.16279 12.8521
head 15.4261 -2.5511 3.77797
rclavicle 1.35174e-014 5.1684e-014
rhumerus 32.2223 77.9047 23.9232
rradius 92.3265
rwrist -12.7875
rhand 47.6237 -18.5178
rfingers 7.12502
rthumb 68.3247 -18.9565
lclavicle 1.35174e-014 5.1684e-014
lhumerus 22.3819 -65.9787 -12.5335
lradius 83.4837
lwrist 36.4022
lhand 35.9516 51.6877
lfingers 7.12502
lthumb 58.9631 66.5123
rfemur -6.80121 4.84289 17.8392
rtibia 37.2068
rfoot -21.7137 -15.7867
rtoes 1.86239
lfemur -8.86539 20.1024 -11.2137
ltibia 44.6668
lfoot -1.54328 -2.10102
ltoes -13.0233
